<?xml version="1.0" encoding="UTF-8" standalone="no"?>
<!-- Created with Inkscape (http://www.inkscape.org/) -->

<svg
   xmlns:dc="http://purl.org/dc/elements/1.1/"
   xmlns:cc="http://creativecommons.org/ns#"
   xmlns:rdf="http://www.w3.org/1999/02/22-rdf-syntax-ns#"
   xmlns:svg="http://www.w3.org/2000/svg"
   xmlns="http://www.w3.org/2000/svg"
   xmlns:sodipodi="http://sodipodi.sourceforge.net/DTD/sodipodi-0.dtd"
   xmlns:inkscape="http://www.inkscape.org/namespaces/inkscape"
   width="32"
   height="32"
   id="svg2"
   version="1.1"
   inkscape:version="0.48.4 r9939"
   sodipodi:docname="atomicSIB.svg"
   inkscape:export-filename="/home/naujokat/git/itmc/cinco-inhouse-examples/ProcessModeler/info.scce.dime/icons/atomicSIB.png"
   inkscape:export-xdpi="90"
   inkscape:export-ydpi="90">
  <defs
     id="defs4" />
  <sodipodi:namedview
     id="base"
     pagecolor="#ffffff"
     bordercolor="#666666"
     borderopacity="1.0"
     inkscape:pageopacity="0.0"
     inkscape:pageshadow="2"
     inkscape:zoom="1"
     inkscape:cx="7.3999863"
     inkscape:cy="17.473931"
     inkscape:document-units="px"
     inkscape:current-layer="layer1"
     showgrid="false"
     inkscape:window-width="1920"
     inkscape:window-height="1015"
     inkscape:window-x="0"
     inkscape:window-y="0"
     inkscape:window-maximized="1">
    <inkscape:grid
       type="xygrid"
       id="grid3753"
       empspacing="5"
       visible="true"
       enabled="true"
       snapvisiblegridlinesonly="true" />
  </sodipodi:namedview>
  <metadata
     id="metadata7">
    <rdf:RDF>
      <cc:Work
         rdf:about="">
        <dc:format>image/svg+xml</dc:format>
        <dc:type
           rdf:resource="http://purl.org/dc/dcmitype/StillImage" />
        <dc:title></dc:title>
      </cc:Work>
    </rdf:RDF>
  </metadata>
  <g
     inkscape:label="Layer 1"
     inkscape:groupmode="layer"
     id="layer1"
     transform="translate(0,-1020.3622)">
    <path
       sodipodi:type="arc"
       style="color:#000000;fill:#414141;fill-opacity:1;fill-rule:nonzero;stroke:#414141;stroke-width:0.50000000000000000;stroke-linecap:round;stroke-linejoin:round;stroke-miterlimit:4;stroke-opacity:1;stroke-dasharray:none;stroke-dashoffset:0;marker:none;visibility:visible;display:inline;overflow:visible;enable-background:accumulate"
       id="path2993"
       sodipodi:cx="-9.046875"
       sodipodi:cy="6.453125"
       sodipodi:rx="5.328125"
       sodipodi:ry="5.328125"
       d="m -3.71875,6.453125 a 5.328125,5.328125 0 1 1 -10.65625,0 5.328125,5.328125 0 1 1 10.65625,0 z"
       transform="matrix(2.8683474,0,0,2.8683474,41.949581,1017.8524)" />
    <g
       id="g3802"
       transform="matrix(2,0,0,2,1.937501,-1052.4872)">
      <g
         transform="translate(-1.5535714,0.87946429)"
         id="g3840">
        <path
           sodipodi:type="arc"
           style="color:#000000;fill:#ff0000;fill-opacity:1;fill-rule:nonzero;stroke:none;stroke-width:1.93649173;marker:none;visibility:visible;display:inline;overflow:visible;enable-background:accumulate"
           id="path3755-0"
           sodipodi:cx="19.330357"
           sodipodi:cy="-4.2678571"
           sodipodi:rx="1.875"
           sodipodi:ry="1.7410715"
           d="m 21.205357,-4.2678571 c 0,0.9615672 -0.839466,1.7410715 -1.875,1.7410715 -1.035534,0 -1.875,-0.7795043 -1.875,-1.7410715 0,-0.9615672 0.839466,-1.7410714 1.875,-1.7410714 1.035534,0 1.875,0.7795042 1.875,1.7410714 z"
           transform="matrix(0.53333333,0,0,0.57435896,-0.80059485,1045.4384)" />
        <path
           sodipodi:type="arc"
           style="color:#000000;fill:#ff0000;fill-opacity:1;fill-rule:nonzero;stroke:none;stroke-width:1.93649173;marker:none;visibility:visible;display:inline;overflow:visible;enable-background:accumulate"
           id="path3755"
           sodipodi:cx="19.330357"
           sodipodi:cy="-4.2678571"
           sodipodi:rx="1.875"
           sodipodi:ry="1.7410715"
           d="m 21.205357,-4.2678571 c 0,0.9615672 -0.839466,1.7410715 -1.875,1.7410715 -1.035534,0 -1.875,-0.7795043 -1.875,-1.7410715 0,-0.9615672 0.839466,-1.7410714 1.875,-1.7410714 1.035534,0 1.875,0.7795042 1.875,1.7410714 z"
           transform="matrix(0.53333333,0,0,0.57435896,-2.1666669,1045.2868)" />
        <path
           sodipodi:type="arc"
           style="color:#000000;fill:#ffffff;fill-opacity:1;fill-rule:nonzero;stroke:none;stroke-width:1.93649173;marker:none;visibility:visible;display:inline;overflow:visible;enable-background:accumulate"
           id="path3755-3"
           sodipodi:cx="19.330357"
           sodipodi:cy="-4.2678571"
           sodipodi:rx="1.875"
           sodipodi:ry="1.7410715"
           d="m 21.205357,-4.2678571 c 0,0.9615672 -0.839466,1.7410715 -1.875,1.7410715 -1.035534,0 -1.875,-0.7795043 -1.875,-1.7410715 0,-0.9615672 0.839466,-1.7410714 1.875,-1.7410714 1.035534,0 1.875,0.7795042 1.875,1.7410714 z"
           transform="matrix(0.53333333,0,0,0.57435896,-2.4523806,1046.3313)" />
        <path
           sodipodi:type="arc"
           style="color:#000000;fill:#ff0000;fill-opacity:1;fill-rule:nonzero;stroke:none;stroke-width:1.93649173;marker:none;visibility:visible;display:inline;overflow:visible;enable-background:accumulate"
           id="path3755-2"
           sodipodi:cx="19.330357"
           sodipodi:cy="-4.2678571"
           sodipodi:rx="1.875"
           sodipodi:ry="1.7410715"
           d="m 21.205357,-4.2678571 c 0,0.9615672 -0.839466,1.7410715 -1.875,1.7410715 -1.035534,0 -1.875,-0.7795043 -1.875,-1.7410715 0,-0.9615672 0.839466,-1.7410714 1.875,-1.7410714 1.035534,0 1.875,0.7795042 1.875,1.7410714 z"
           transform="matrix(0.53333333,0,0,0.57435896,-1.1577377,1046.6885)" />
        <path
           sodipodi:type="arc"
           style="color:#000000;fill:#ffffff;fill-opacity:1;fill-rule:nonzero;stroke:none;stroke-width:1.93649173;marker:none;visibility:visible;display:inline;overflow:visible;enable-background:accumulate"
           id="path3755-3-5"
           sodipodi:cx="19.330357"
           sodipodi:cy="-4.2678571"
           sodipodi:rx="1.875"
           sodipodi:ry="1.7410715"
           d="m 21.205357,-4.2678571 c 0,0.9615672 -0.839466,1.7410715 -1.875,1.7410715 -1.035534,0 -1.875,-0.7795043 -1.875,-1.7410715 0,-0.9615672 0.839466,-1.7410714 1.875,-1.7410714 1.035534,0 1.875,0.7795042 1.875,1.7410714 z"
           transform="matrix(0.53333333,0,0,0.57435896,-1.1577377,1045.4831)" />
      </g>
      <path
         transform="matrix(0.72872342,0,0,0.81679389,5.3223783,1038.6142)"
         d="m 10.535715,7.0044641 c 0,1.6149398 -3.7576107,2.9241071 -8.3928579,2.9241071 -4.6352473,0 -8.3928576,-1.3091673 -8.3928576,-2.9241071 0,-1.6149397 3.7576103,-2.924107 8.3928576,-2.924107 4.6352472,0 8.3928579,1.3091673 8.3928579,2.924107 z"
         sodipodi:ry="2.9241071"
         sodipodi:rx="8.3928576"
         sodipodi:cy="7.0044641"
         sodipodi:cx="2.1428571"
         id="path3847"
         style="color:#000000;fill:none;stroke:#dee2ff;stroke-width:0.32404283;stroke-miterlimit:4;stroke-opacity:1;stroke-dasharray:none;marker:none;visibility:visible;display:inline;overflow:visible;enable-background:accumulate"
         sodipodi:type="arc" />
      <path
         sodipodi:type="arc"
         style="color:#000000;fill:none;stroke:#dee2ff;stroke-width:0.32404283;stroke-miterlimit:4;stroke-opacity:1;stroke-dasharray:none;marker:none;visibility:visible;display:inline;overflow:visible;enable-background:accumulate"
         id="path3849"
         sodipodi:cx="2.1428571"
         sodipodi:cy="7.0044641"
         sodipodi:rx="8.3928576"
         sodipodi:ry="2.9241071"
         d="m 10.535715,7.0044641 c 0,1.6149398 -3.7576107,2.9241071 -8.3928579,2.9241071 -4.6352473,0 -8.3928576,-1.3091673 -8.3928576,-2.9241071 0,-1.6149397 3.7576103,-2.924107 8.3928576,-2.924107 4.6352472,0 8.3928579,1.3091673 8.3928579,2.924107 z"
         transform="matrix(0.37310469,0.62596383,-0.7016152,0.41819656,10.998857,1040.0648)" />
      <path
         transform="matrix(0.48551913,-0.5434234,0.60909929,0.54419694,1.5771162,1041.688)"
         d="m 10.535715,7.0044641 c 0,1.6149398 -3.7576107,2.9241071 -8.3928579,2.9241071 -4.6352473,0 -8.3928576,-1.3091673 -8.3928576,-2.9241071 0,-1.6149397 3.7576103,-2.924107 8.3928576,-2.924107 4.6352472,0 8.3928579,1.3091673 8.3928579,2.924107 z"
         sodipodi:ry="2.9241071"
         sodipodi:rx="8.3928576"
         sodipodi:cy="7.0044641"
         sodipodi:cx="2.1428571"
         id="path3851"
         style="color:#000000;fill:none;stroke:#dee2ff;stroke-width:0.32404283;stroke-miterlimit:4;stroke-opacity:1;stroke-dasharray:none;marker:none;visibility:visible;display:inline;overflow:visible;enable-background:accumulate"
         sodipodi:type="arc" />
    </g>
  </g>
</svg>
